<?xml version="1.0" standalone="no"?>
<!DOCTYPE svg PUBLIC "-//W3C//DTD SVG 20010904//EN"
 "http://www.w3.org/TR/2001/REC-SVG-20010904/DTD/svg10.dtd">
<svg version="1.0" xmlns="http://www.w3.org/2000/svg"
 width="2048.000000pt" height="2048.000000pt" viewBox="0 0 2048.000000 2048.000000"
 preserveAspectRatio="xMidYMid meet">

<g transform="translate(0.000000,2048.000000) scale(0.100000,-0.100000)"
fill="#000000" stroke="none">
<path d="M9812 20470 c-1466 -66 -2850 -423 -4142 -1070 -1376 -689 -2570
-1669 -3521 -2891 -1194 -1534 -1926 -3387 -2103 -5324 -56 -600 -55 -1278 0
-1885 198 -2183 1087 -4222 2564 -5885 164 -184 607 -628 790 -791 1178 -1052
2529 -1799 4030 -2229 1405 -404 2922 -497 4390 -270 1848 286 3595 1084 5030
2299 404 342 864 802 1206 1206 851 1005 1511 2188 1918 3439 272 833 429
1672 487 2596 16 245 16 906 0 1150 -79 1250 -337 2350 -815 3470 -104 244
-370 778 -504 1011 -620 1080 -1403 2015 -2352 2808 -1562 1306 -3471 2111
-5508 2321 -415 43 -1069 63 -1470 45z m3652 -9465 c1129 -2866 2059 -5229
2069 -5252 l17 -43 -1173 0 -1172 0 -451 1198 -452 1197 -2129 3 -2129 2 -460
-1197 -461 -1198 -1096 -3 -1097 -2 9 22 c5 13 925 2372 2046 5243 1121 2871
2040 5226 2042 5233 4 10 249 12 1195 10 l1191 -3 2051 -5210z"/>
<path d="M9412 11968 c-414 -1184 -755 -2163 -759 -2175 l-5 -23 1531 0 c1218
0 1531 3 1530 13 0 6 -341 984 -758 2172 -500 1428 -762 2161 -772 2163 -10 2
-204 -541 -767 -2150z"/>
</g>
</svg>
